<svg width="100" height="19" viewBox="0 0 100 19" fill="none" xmlns="http://www.w3.org/2000/svg">
<g id="Frame">
<path id="Vector" d="M42.7704 1.42353H45.4481V3.89092C46.1215 2.92827 47.0194 2.14545 48.0634 1.61063C49.0055 1.15561 50.0381 0.920595 51.0836 0.923243C52.5918 0.800318 54.0776 1.34878 55.1468 2.4231C56.1118 3.67847 56.5828 5.2462 56.4699 6.82754V17.5732H53.7613V7.35842C53.8687 6.23911 53.5822 5.1174 52.9515 4.18787C52.2972 3.52751 51.3859 3.19025 50.4608 3.26609C49.8507 3.2678 49.2453 3.37355 48.6705 3.57882C48.0706 3.79242 47.5237 4.13336 47.0671 4.57839C46.5884 4.98676 46.1874 5.47893 45.8839 6.03096C45.5909 6.64945 45.4521 7.33009 45.4795 8.01432V17.5732H42.7704V1.42353ZM59.6452 1.42353H62.3538V11.6068C62.255 12.7199 62.5112 13.8356 63.0855 14.7931C63.6865 15.4666 64.5702 15.8143 65.4673 15.7301C66.6836 15.7253 67.8525 15.2563 68.7368 14.4184C69.2154 14.01 69.6161 13.5178 69.9196 12.9658C70.2127 12.3472 70.3517 11.6664 70.3245 10.9819V1.42353H73.033V17.5732H70.3559V15.0742C69.6822 16.0135 68.8103 16.7921 67.8024 17.3545C66.8901 17.8333 65.8745 18.08 64.845 18.0729C63.3656 18.2101 61.9045 17.6641 60.8751 16.5894C59.9625 15.2936 59.5277 13.7198 59.6452 12.1376L59.6452 1.42353ZM76.8935 1.42353H79.5711V3.92242C80.1138 3.08454 80.8374 2.37992 81.6883 1.86078C82.4687 1.38995 83.3622 1.14158 84.2728 1.14238C84.7531 1.13518 85.2329 1.17692 85.7048 1.26694L85.3623 3.79733C85.1545 3.75563 84.9469 3.7192 84.7395 3.68802C84.5128 3.65534 84.2839 3.63971 84.0549 3.64125C83.5352 3.64489 83.0196 3.73456 82.529 3.90665C81.9851 4.0987 81.4868 4.40183 81.0655 4.7969C80.6199 5.17866 80.2549 5.6459 79.9917 6.17117C79.7223 6.73623 79.589 7.35694 79.6026 7.9832V17.5731H76.8935V1.42353ZM97.3804 15.3554C96.7613 16.0951 96.0121 16.7145 95.17 17.1827C94.1449 17.7245 92.9965 17.9883 91.8386 17.9479C91.0863 17.9555 90.3367 17.8557 89.6124 17.6515C88.9751 17.4734 88.3814 17.1649 87.8687 16.7454C87.378 16.3356 86.9891 15.8169 86.7326 15.2303C86.4492 14.559 86.3112 13.835 86.3277 13.1061C86.285 12.1602 86.5292 11.2235 87.0279 10.4196C87.502 9.72673 88.1453 9.16743 88.8963 8.7952C89.7261 8.38348 90.6129 8.09914 91.5269 7.95171C92.526 7.78316 93.5348 7.67889 94.5471 7.63954L97.3181 7.54599V6.92114C97.4165 5.85648 97.1045 4.79447 96.4464 3.95346C95.6636 3.27851 94.641 2.95152 93.6132 3.04745C92.6263 2.97337 91.6398 3.19641 90.78 3.68804C90.1816 4.10928 89.7601 4.73799 89.5967 5.45278L87.1369 5.17163C87.3309 3.84092 88.0925 2.66077 89.2232 1.93855C90.5971 1.1956 92.1477 0.844458 93.7064 0.923243C94.7038 0.89856 95.6982 1.04119 96.6486 1.34524C97.3829 1.58608 98.0498 1.99816 98.5946 2.54766C99.107 3.09416 99.4762 3.75978 99.6689 4.48476C99.8964 5.32967 100.006 6.20208 99.9957 7.07722V17.5732H97.3804V15.3554ZM97.3181 9.48259L94.7341 9.57613C93.8132 9.59678 92.8961 9.70144 91.9941 9.88881C91.3833 10.0093 90.7984 10.2367 90.2661 10.5604C89.8672 10.8104 89.5526 11.175 89.3631 11.6068C89.1793 12.0629 89.0893 12.5517 89.0986 13.0436C89.0647 13.7676 89.3293 14.4737 89.8303 14.996C90.5072 15.5495 91.3742 15.8132 92.2435 15.7301C93.5924 15.8128 94.9237 15.3897 95.9792 14.5429C96.8875 13.7157 97.3788 12.5238 97.3181 11.2946L97.3181 9.48259ZM17.0966 9.49809C17.0966 14.2339 20.9231 18.0729 25.6432 18.0729C30.3634 18.0729 34.1898 14.2339 34.1898 9.49809C34.1898 9.44922 17.0966 9.49809 17.0966 9.49809ZM17.0966 9.49809C17.0966 4.76233 13.2702 0.923243 8.55002 0.923243C3.82986 0.923243 0.00341797 4.76233 0.00341797 9.49809H17.0966Z" fill="white"/>
</g>
</svg>
